<svg width="65" height="64" viewBox="0 0 65 64" fill="none" xmlns="http://www.w3.org/2000/svg">
<path fill-rule="evenodd" clip-rule="evenodd" d="M31.2895 9.18408C32.1426 9.18498 32.9218 9.66827 33.3017 10.4321L49.1942 42.3852C53.5537 42.324 57.0459 38.7644 57.0459 34.42C57.0459 30.6806 54.4666 27.553 50.9655 26.6861L50.9678 26.6766L48.9841 26.2043L49.3294 24.1321C49.3936 23.7468 49.4265 23.3598 49.4265 22.9271C49.4265 19.1964 46.397 16.1955 42.695 16.1955C41.6509 16.1955 40.6323 16.4495 39.7425 16.8944L37.7301 12.8695C39.224 12.1225 40.9296 11.6955 42.695 11.6955C48.8644 11.6955 53.92 16.6907 53.9265 22.915C58.4313 24.7834 61.5885 29.2404 61.5885 34.42C61.5885 41.2754 56.0326 46.886 49.1225 46.886H46.2219V54.852H41.7219V46.886H33.452V54.852H28.952V46.886H20.682V54.852H16.182V46.886H12.351V46.8434H2.02148L16.9989 16.8886H19.8652L32.6139 42.386H44.1687L31.2818 16.4759L28.2921 22.4553L24.2672 20.4428L29.2747 10.4278C29.6562 9.66482 30.4364 9.18318 31.2895 9.18408ZM27.5614 42.3434L18.432 24.0846L9.30263 42.3434H27.5614Z" fill="#007BFB"/>
</svg>
