<svg width="64" height="64" viewBox="0 0 64 64" fill="none" xmlns="http://www.w3.org/2000/svg">
<g clip-path="url(#clip0_1447_235)">
<path fill-rule="evenodd" clip-rule="evenodd" d="M14.0774 27.9364C11.3123 30.7016 11.3123 35.1825 14.0774 37.9476C16.8426 40.7128 21.3235 40.7128 24.0886 37.9476L40.4026 21.6336L34.4547 15.6856L37.6367 12.5037L43.5846 18.4516L47.9416 14.0947L41.9936 8.14669L45.1756 4.96471L51.1236 10.9127L55.1868 6.84945L58.3688 10.0314L33.7503 34.6499C36.205 34.9632 38.5786 36.0624 40.4638 37.9476C44.9856 42.4695 44.9856 49.8009 40.4638 54.3228C36.0469 58.7397 28.9494 58.8422 24.408 54.6304C23.9364 55.5374 23.32 56.3886 22.5587 57.1499C18.5573 61.1513 12.0698 61.1513 8.06834 57.1499C4.06692 53.1485 4.06692 46.6609 8.06834 42.6595C8.82959 41.8982 9.68083 41.2818 10.5878 40.8102C6.37537 36.2683 6.47792 29.172 10.8954 24.7545C15.418 20.232 22.7481 20.232 27.2706 24.7545L30.0977 27.5816L26.9157 30.7635L24.0886 27.9364C21.3235 25.1713 16.8426 25.1713 14.0774 27.9364ZM27.2706 41.1296C24.5061 43.8941 24.5061 48.3763 27.2706 51.1408C30.0351 53.9053 34.5173 53.9053 37.2818 51.1408C40.0463 48.3763 40.0463 43.8941 37.2818 41.1296C34.5173 38.3651 30.0351 38.3651 27.2706 41.1296ZM11.2503 45.8415C9.00626 48.0855 9.00626 51.7238 11.2503 53.9679C13.4944 56.212 17.1327 56.212 19.3768 53.9679C21.6208 51.7238 21.6208 48.0855 19.3768 45.8415C17.1327 43.5974 13.4944 43.5974 11.2503 45.8415ZM49.5326 30.7635L45.7631 26.9941L48.9451 23.8121L52.7146 27.5816L49.5326 30.7635ZM57.0715 23.2246L53.3021 19.4551L56.484 16.2731L60.2535 20.0426L57.0715 23.2246Z" fill="#007BFB"/>
</g>
<defs>
<clipPath id="clip0_1447_235">
<rect width="64" height="64" fill="white"/>
</clipPath>
</defs>
</svg>
