<?xml version="1.0" encoding="UTF-8" standalone="no"?>
<svg
   enable-background="new 0 0 32 32"
   height="32px"
   id="Layer_1"
   version="1.0"
   viewBox="0 0 32 32"
   width="32px"
   xml:space="preserve"
   sodipodi:docname="youtube.svg"
   inkscape:version="1.4.2 (f4327f4, 2025-05-13)"
   xmlns:inkscape="http://www.inkscape.org/namespaces/inkscape"
   xmlns:sodipodi="http://sodipodi.sourceforge.net/DTD/sodipodi-0.dtd"
   xmlns="http://www.w3.org/2000/svg"
   xmlns:svg="http://www.w3.org/2000/svg"><defs
     id="defs7" /><sodipodi:namedview
     id="namedview7"
     pagecolor="#ffffff"
     bordercolor="#000000"
     borderopacity="0.25"
     inkscape:showpageshadow="2"
     inkscape:pageopacity="0.0"
     inkscape:pagecheckerboard="0"
     inkscape:deskcolor="#d1d1d1"
     inkscape:zoom="26.71875"
     inkscape:cx="16"
     inkscape:cy="16"
     inkscape:window-width="1920"
     inkscape:window-height="1057"
     inkscape:window-x="1912"
     inkscape:window-y="70"
     inkscape:window-maximized="1"
     inkscape:current-layer="g1" /><g
     id="g1"><path
       d="M31.67,9.179c0,0-0.312-2.353-1.271-3.389c-1.217-1.358-2.58-1.366-3.205-1.443C22.717,4,16.002,4,16.002,4   h-0.015c0,0-6.715,0-11.191,0.347C4.171,4.424,2.809,4.432,1.591,5.79C0.633,6.826,0.32,9.179,0.32,9.179S0,11.94,0,14.701v2.588   c0,2.763,0.32,5.523,0.32,5.523s0.312,2.352,1.271,3.386c1.218,1.358,2.815,1.317,3.527,1.459C7.677,27.919,15.995,28,15.995,28   s6.722-0.012,11.199-0.355c0.625-0.08,1.988-0.088,3.205-1.446c0.958-1.034,1.271-3.386,1.271-3.386s0.32-2.761,0.32-5.523v-2.588   C31.99,11.94,31.67,9.179,31.67,9.179z"
       fill="#E02F2F"
       id="path1"
       style="fill:#0d82fb;fill-opacity:1" /><polygon
       fill="#FFFFFF"
       points="12,10 12,22 22,16  "
       id="polygon1" /></g><g
     id="g2" /><g
     id="g3" /><g
     id="g4" /><g
     id="g5" /><g
     id="g6" /><g
     id="g7" /></svg>
