<?xml version="1.0" encoding="UTF-8" standalone="no"?>
<svg
   height="512px"
   id="Layer_1"
   style="enable-background:new 0 0 512 512;"
   version="1.1"
   viewBox="0 0 512 512"
   width="512px"
   xml:space="preserve"
   sodipodi:docname="1-2star.svg"
   inkscape:version="1.4.2 (f4327f4, 2025-05-13)"
   xmlns:inkscape="http://www.inkscape.org/namespaces/inkscape"
   xmlns:sodipodi="http://sodipodi.sourceforge.net/DTD/sodipodi-0.dtd"
   xmlns="http://www.w3.org/2000/svg"
   xmlns:svg="http://www.w3.org/2000/svg"><defs
     id="defs1" /><sodipodi:namedview
     id="namedview1"
     pagecolor="#ffffff"
     bordercolor="#000000"
     borderopacity="0.25"
     inkscape:showpageshadow="2"
     inkscape:pageopacity="0.0"
     inkscape:pagecheckerboard="0"
     inkscape:deskcolor="#d1d1d1"
     inkscape:zoom="1.5917969"
     inkscape:cx="281.44294"
     inkscape:cy="186.8957"
     inkscape:window-width="1031"
     inkscape:window-height="981"
     inkscape:window-x="952"
     inkscape:window-y="0"
     inkscape:window-maximized="0"
     inkscape:current-layer="Layer_1" /><path
     id="path23-5-6"
     style="fill:#ffec00;fill-opacity:1;stroke-width:5.20901;paint-order:stroke markers fill"
     inkscape:transform-center-x="0.7502234"
     inkscape:transform-center-y="-5.3130446"
     transform="matrix(64.066354,0,0,64.786942,-2206.2104,-5112.7535)"
     d="m 38.302779,79.400458 -0.998172,2.237472 -2.409062,0.446174 1.819494,1.640745 -0.320103,2.429026 2.113745,-1.218266 c -4.94e-4,-0.0027 -9.9e-4,-0.0053 -0.0014,-0.008 -5.46e-4,-0.003 -0.001,-0.0047 -0.0013,-0.0079 -4.64e-4,-0.0039 -4.42e-4,-0.0079 -8.54e-4,-0.01185 -3.94e-4,-0.006 -4.9e-4,-0.0123 -3.96e-4,-0.01836 1.5e-5,-0.0064 5.9e-5,-0.01252 1.22e-4,-0.01887 8.7e-5,-0.0084 2.12e-4,-0.01669 4.57e-4,-0.02505 2.39e-4,-0.0087 3.68e-4,-0.01734 2.74e-4,-0.02602 v -0.01872 -0.01824 -0.0192 -0.01848 c 0,-0.0074 5e-6,-0.01477 0,-0.02216 -1.5e-5,-0.0069 -2.9e-5,-0.01379 -6.1e-5,-0.02068 -3.7e-5,-0.0066 -8.6e-5,-0.01328 -2.43e-4,-0.01984 -1.67e-4,-0.0055 -3.55e-4,-0.01094 -9.76e-4,-0.01643 -7.2e-4,-0.0064 -0.0018,-0.01275 -0.0019,-0.01923 -3.01e-4,-0.0053 -8.73e-4,-0.01053 -0.0013,-0.01577 -6.48e-4,-0.0048 -0.0014,-0.0096 -0.0021,-0.01441 -6.76e-4,-0.0051 -0.0014,-0.01011 -0.0022,-0.01516 -9.24e-4,-0.0064 -0.0016,-0.01289 -0.0023,-0.01935 -6.49e-4,-0.0078 -0.0012,-0.01554 -0.0012,-0.02333 -1.6e-5,-0.0064 -5.8e-5,-0.01291 -1.52e-4,-0.01935 -1.22e-4,-0.0083 -2.73e-4,-0.0166 -6.71e-4,-0.0249 -4.24e-4,-0.0088 -0.001,-0.01768 -0.0014,-0.02653 -2.35e-4,-0.0071 -5.5e-4,-0.01423 -5.19e-4,-0.02137 -7.3e-5,-0.0063 -1.54e-4,-0.01263 -4.26e-4,-0.01893 -2.48e-4,-0.0061 -3.99e-4,-0.01215 -3.05e-4,-0.01824 v -0.01245 c 0,-0.0065 0.0011,-0.01195 0.0028,-0.01637 -0.0012,-0.0057 -0.0019,-0.01202 -0.002,-0.0189 -6.4e-5,-0.0039 -1.19e-4,-0.0077 -2.44e-4,-0.01158 -2.92e-4,-0.0084 -9.58e-4,-0.01672 -0.0016,-0.02505 -0.0011,-0.01048 -0.0023,-0.02093 -0.0037,-0.03138 -0.0015,-0.01276 -0.0022,-0.02558 -0.0028,-0.03841 -9.59e-4,-0.01458 -0.0024,-0.02914 -0.003,-0.04374 -4.82e-4,-0.01555 -7.95e-4,-0.03108 -6.1e-4,-0.04664 v -0.03714 c 0,-0.01869 0.0044,-0.03307 0.0111,-0.04317 -7.27e-4,-0.0032 -0.0014,-0.0064 -0.0021,-0.0096 -0.0021,-0.0086 -0.0034,-0.01731 -0.0043,-0.02611 -7.23e-4,-0.0087 -8.87e-4,-0.01734 -0.001,-0.02602 -8.7e-5,-0.0096 -2.59e-4,-0.01928 0,-0.02891 4.11e-4,-0.0084 9.98e-4,-0.0169 0.0018,-0.02532 -0.0042,-2.63e-4 -0.0081,-0.0052 -0.01146,-0.01727 -0.0019,-0.0069 -0.0038,-0.01345 -0.0038,-0.02062 -3.95e-4,-0.0076 -2.83e-4,-0.01518 3.66e-4,-0.02276 8.29e-4,-0.0099 0.0021,-0.01974 0.0057,-0.02903 9.08e-4,-0.0021 0.0016,-0.0043 0.0027,-0.0063 0.0012,-0.0022 0.0025,-0.0044 0.004,-0.0065 -0.0018,-0.01116 -0.0035,-0.02232 -0.005,-0.03352 -0.0016,-0.01157 -0.0032,-0.02314 -0.0048,-0.0347 -0.0015,-0.0096 -0.0027,-0.0193 -0.0042,-0.02894 -0.0015,-0.01256 -0.0027,-0.0252 -0.0026,-0.03786 v -0.02828 -0.02831 -0.03316 -0.03705 -0.04067 c -10e-7,-0.0116 -2.1e-5,-0.02319 -3e-5,-0.03479 -1.6e-5,-0.01076 -1.4e-5,-0.02153 -6.1e-5,-0.03229 -6e-5,-0.0101 -1.66e-4,-0.02021 -4.58e-4,-0.0303 -3.56e-4,-0.01123 -7.57e-4,-0.02246 -0.0018,-0.03364 -10e-4,-0.01009 -0.0026,-0.02015 -0.0037,-0.03024 -0.0013,-0.0099 -0.0025,-0.01981 -0.0025,-0.02978 6.7e-5,-0.0079 1.64e-4,-0.01579 3.96e-4,-0.0237 1.6e-4,-0.0046 3.45e-4,-0.0092 5.79e-4,-0.01378 -0.0049,-0.0086 -0.0079,-0.02025 -0.0079,-0.03485 v -0.01456 -0.06545 -0.06424 -0.05276 -0.05291 -0.04736 -0.04329 -0.01721 c -0.0035,-0.0036 -0.007,-0.0073 -0.01076,-0.01013 -0.0027,-0.0085 -0.0027,-0.0174 -0.0029,-0.02623 -5.76e-4,-0.0062 -0.0015,-0.01244 -0.0021,-0.01866 -8.79e-4,-0.006 -0.0017,-0.01196 -0.0023,-0.01797 -5.93e-4,-0.0061 -6.84e-4,-0.01229 -7.93e-4,-0.01845 -3.1e-4,-0.01651 0.0034,-0.02928 0.0092,-0.03826 -0.0015,-0.01195 -0.0026,-0.02393 -0.0042,-0.03584 -0.0015,-0.01264 -0.0027,-0.02528 -0.0031,-0.03802 -7.71e-4,-0.01078 -0.002,-0.02153 -0.0036,-0.03223 -0.0011,-0.0095 -0.0018,-0.01898 -0.0029,-0.02846 -0.0013,-0.01171 -0.0022,-0.02345 -0.003,-0.03521 -9.24e-4,-0.01023 -0.0017,-0.02044 -0.0013,-0.03072 0,-0.01188 1.1e-5,-0.02373 0,-0.0356 0,-0.01228 -1.3e-5,-0.02456 -1.22e-4,-0.03684 -8.3e-5,-0.008 -2.08e-4,-0.01609 -6.1e-4,-0.02412 -3.48e-4,-0.0062 -8.62e-4,-0.01239 -0.002,-0.01851 -0.0012,-0.0076 -0.0022,-0.01528 -0.003,-0.02297 -0.0011,-0.01059 -0.0013,-0.02124 -8.84e-4,-0.03186 2.4e-4,-0.0099 5.01e-4,-0.01986 0.0021,-0.0297 0.0016,-0.0088 0.0038,-0.01748 0.0076,-0.02547 -7.42e-4,-0.0086 -0.0015,-0.01711 -0.0023,-0.02566 -0.0012,-0.0046 -0.0017,-0.0097 -0.002,-0.01516 -0.0015,-0.0095 -0.0029,-0.01906 -0.0034,-0.0287 -0.0018,-0.01972 -0.003,-0.03947 -0.0044,-0.05921 -0.0016,-0.03035 -0.0014,-0.06072 -0.0013,-0.0911 1.6e-5,-0.01561 -1.7e-5,-0.03123 6.1e-5,-0.04685 1.6e-5,-0.0015 3e-5,-0.0031 6.1e-5,-0.0046 1.3e-5,-0.0011 -8.09e-4,-0.003 -3.97e-4,-0.0037 8e-6,-1.3e-5 5.1e-5,-7.7e-5 6.1e-5,-9e-5 l 3.1e-5,-3e-5 3e-5,-3.1e-5 9.2e-5,-6e-5 c 7.6e-5,-3.7e-5 1.99e-4,-8.1e-5 3.05e-4,-9e-5 h 6.1e-5 c 5.5e-5,-0.0051 8.26e-4,-0.0068 0.0044,-0.0067 -1.98e-4,-0.0038 -3.25e-4,-0.0077 -4.27e-4,-0.01152 -5.64e-4,-0.01155 -0.0014,-0.02307 -0.0022,-0.03461 -7.01e-4,-0.0097 -0.0014,-0.01939 -0.002,-0.02909 -5.53e-4,-0.0072 -8.85e-4,-0.0144 -0.0019,-0.02156 -0.0014,-0.0089 -0.0028,-0.01781 -0.0041,-0.02674 -0.0014,-0.01097 -0.0026,-0.022 -0.0032,-0.03304 -3.65e-4,-0.01081 -9.07e-4,-0.02159 -0.0012,-0.03241 v -0.03735 -0.04489 -0.03184 c -3e-6,-0.003 10e-7,-0.0061 0,-0.0091 v -0.01673 -0.0015 -0.01182 c 10e-7,-4.2e-5 -2e-6,-1.09e-4 0,-1.51e-4 1e-4,-0.0028 3.94e-4,-0.0047 0.0011,-0.0059 -0.0023,-0.0062 -0.0039,-0.01344 -0.0047,-0.02168 l -5.19e-4,-0.006 c -0.0015,-0.01472 -0.0037,-0.02924 -0.0056,-0.04392 -9.2e-4,-0.01117 -0.0016,-0.02234 -0.0023,-0.03352 -9.43e-4,-0.0091 -0.0022,-0.01822 -0.0018,-0.02743 v -0.0215 -0.02466 -0.03093 -0.02777 -0.0296 -0.03102 -0.03268 c -10e-7,-0.01057 3e-6,-0.02108 0,-0.03166 0,-0.01059 0,-0.02117 -3.1e-5,-0.03177 -3.1e-5,-0.01174 -5.7e-5,-0.0235 -2.13e-4,-0.03524 -1.48e-4,-0.0098 -2.95e-4,-0.01959 -9.76e-4,-0.02939 -3.9e-5,-4.98e-4 -8e-5,-9.71e-4 -1.22e-4,-0.0015 -0.0044,-0.0071 -0.0079,-0.01617 -0.0099,-0.02734 -0.0014,-0.0076 -0.0027,-0.01513 -0.0039,-0.02276 -0.0011,-0.008 -0.0024,-0.01611 -0.0036,-0.02412 -0.0017,-0.0117 -0.0033,-0.02344 -0.0044,-0.03521 -8.96e-4,-0.01315 -0.0016,-0.02618 -0.0015,-0.03937 -1.84e-4,-0.01066 -4.56e-4,-0.02146 -0.0011,-0.03211 -7.61e-4,-0.01138 -0.0022,-0.02274 -0.0021,-0.03416 0,-0.01023 1.5e-5,-0.02049 0,-0.03072 -2.4e-5,-0.0079 -5.8e-5,-0.01575 -1.83e-4,-0.02364 -1.46e-4,-0.0079 -3.23e-4,-0.01582 -7.31e-4,-0.0237 -5.08e-4,-0.0093 -0.0014,-0.01853 -0.0019,-0.0278 -5.26e-4,-0.01011 -8.2e-4,-0.02029 -6.4e-4,-0.03042 v -0.02674 -0.01926 -0.01513 -0.01797 -0.01881 -0.02397 -0.02228 -0.02315 -0.02647 c -10e-7,-0.0096 4e-6,-0.01922 0,-0.02882 0,-0.0098 -1.5e-5,-0.01955 -3.1e-5,-0.02936 -2.3e-5,-0.0081 -4.3e-5,-0.01627 -1.83e-4,-0.02439 -1.49e-4,-0.0075 -3.57e-4,-0.015 -9.75e-4,-0.02246 -9.8e-4,-0.01103 -0.0023,-0.02202 -0.0037,-0.03301 -9.84e-4,-0.0081 -0.0017,-0.01634 -0.0032,-0.02442 -0.0013,-0.0069 -0.0024,-0.01386 -0.0036,-0.0208 -0.0041,-0.02425 0.0015,-0.04112 0.01131,-0.04998 5e-6,-8.18e-4 1.9e-5,-0.0017 3e-5,-0.0025 -2.02e-4,-0.01604 -4.18e-4,-0.03211 -0.0014,-0.04809 -9.1e-4,-0.01249 -0.0023,-0.0249 -0.0041,-0.03729 -0.0017,-0.0115 -0.0034,-0.02305 -0.005,-0.03455 -0.0018,-0.01242 -0.0034,-0.02483 -0.0047,-0.03732 -0.0011,-0.01115 -0.0021,-0.02232 -0.0029,-0.03349 -5.25e-4,-0.0109 -7.88e-4,-0.0218 -6.1e-4,-0.03271 v -0.0369 -0.03509 -0.03883 -0.04103 c 0,-0.0093 -2.9e-5,-0.01866 -3e-5,-0.02798 -2e-6,-0.0088 6e-6,-0.01767 0,-0.0265 0,-0.01074 -1.4e-5,-0.02149 -6.1e-5,-0.03223 -5.8e-5,-0.01122 -1.12e-4,-0.0224 -3.66e-4,-0.03361 -2.44e-4,-0.0083 -5.21e-4,-0.01653 -0.0015,-0.02475 -10e-4,-0.0086 -0.002,-0.01716 -0.0032,-0.02571 -10e-4,-0.008 -0.0016,-0.01617 -0.0025,-0.02421 -0.0011,-0.01176 -0.0015,-0.02344 -0.0016,-0.03524 -2.76e-4,-0.01037 -5.75e-4,-0.02072 -0.0012,-0.03108 -6.7e-5,-0.0076 -1.9e-4,-0.01516 -4.26e-4,-0.02273 -3.08e-4,-0.0089 -6.69e-4,-0.01785 -0.0016,-0.02671 -9.82e-4,-0.0079 -0.0024,-0.01587 -0.0038,-0.02373 -10e-4,-0.0066 -0.0019,-0.01327 -0.0028,-0.0199 -10e-4,-0.007 -0.0018,-0.01407 -0.003,-0.02107 -0.0014,-0.0098 -0.0023,-0.0195 -0.0021,-0.02936 v -0.02689 -0.0284 -0.02825 -0.02777 -0.02665 -0.02653 c 1e-6,-0.0092 -2e-6,-0.01842 0,-0.02761 1.6e-5,-0.008 4.5e-5,-0.01601 6.1e-5,-0.024 3.1e-5,-0.0076 1.3e-5,-0.01511 1.22e-4,-0.02267 1.58e-4,-0.01114 3.58e-4,-0.02224 7.62e-4,-0.03337 6.3e-5,-0.0015 1.26e-4,-0.003 1.83e-4,-0.0045 -1.44e-4,-4.24e-4 -2.51e-4,-8.57e-4 -3.97e-4,-0.0013 -0.0038,-0.01241 -0.0089,-0.02458 -0.0094,-0.03771 -6.04e-4,-0.01643 0.0025,-0.02288 0.0079,-0.02342 z m 0.965155,1.778154 c 5.38e-4,0.0025 0.0011,0.0049 0.0016,0.0074 2.51e-4,-0.001 5.37e-4,-0.002 7.93e-4,-0.003 z m 2.172857,0.583584 c 0.0024,0.0014 0.0047,0.0028 0.007,0.0042 v -0.0034 z m -0.360405,0.86199 c -0.01116,0.01341 -0.01537,0.01918 -0.01497,0.02035 v 3e-5 l 3.1e-5,3e-5 v 3.1e-5 l 3e-5,3e-5 3.1e-5,3e-5 h 3e-5 l 3.1e-5,3e-5 c 0.0013,4.46e-4 0.0078,-0.0042 0.01658,-0.01001 z M 38.4396,82.928459 c -3.33e-4,0.0012 -6.22e-4,0.0024 -6.4e-4,0.0027 v 3e-5 3e-5 h 3e-5 v -3e-5 c 6.7e-5,-1.63e-4 2.7e-4,-0.001 6.1e-4,-0.0027 z m 0.34754,0.696935 c 0.0012,0.0029 0.0023,0.006 0.0035,0.0096 1.73e-4,-0.0017 3.66e-4,-0.0033 5.49e-4,-0.005 -0.0014,-0.0015 -0.0027,-0.003 -0.004,-0.0046 z" /><path
     id="path23-5-6-8"
     style="fill:#929292;fill-opacity:1;stroke-width:335.594;paint-order:stroke markers fill"
     inkscape:transform-center-x="3.6988009"
     inkscape:transform-center-y="-9.2210656"
     d="m 246.43524,31.05774 74.41157,139.87683 156.04457,17.50549 -108.4558,114.56424 31.99768,155.44058 -140.84542,-68.78021 c 0.0187,-0.17677 0.0381,-0.34709 0.0514,-0.52347 0.0206,-0.19641 0.0416,-0.30839 0.0456,-0.51655 0.0112,-0.25418 -0.009,-0.51252 -0.001,-0.76967 -0.003,-0.38953 -0.0272,-0.79703 -0.0619,-1.18814 -0.0314,-0.41346 -0.0636,-0.80865 -0.0977,-1.21866 -0.0459,-0.54229 -0.0929,-1.07738 -0.14828,-1.61638 -0.0566,-0.561 -0.10595,-1.11865 -0.14122,-1.67992 l -0.089,-1.20955 -0.0867,-1.17853 -0.0913,-1.24056 -0.0879,-1.19404 c -0.0352,-0.47812 -0.0706,-0.95429 -0.10534,-1.43181 -0.0318,-0.4459 -0.0636,-0.89114 -0.0943,-1.33647 -0.0293,-0.42659 -0.0571,-0.85848 -0.0788,-1.28305 -0.0154,-0.35615 -0.0294,-0.70852 -0.0157,-1.06616 0.0156,-0.41691 0.0544,-0.83229 0.03,-1.25144 -0.006,-0.34386 0.006,-0.68445 0.008,-1.02505 0.0186,-0.31317 0.0439,-0.62685 0.0657,-0.94094 0.0189,-0.33269 0.0414,-0.6598 0.0685,-0.98986 0.0286,-0.41786 0.0409,-0.84037 0.0549,-1.26106 0.004,-0.50702 0.003,-1.00972 -0.0342,-1.51303 -0.0294,-0.4136 -0.0574,-0.83445 -0.082,-1.251 -0.0314,-0.53686 -0.0614,-1.07384 -0.0754,-1.61199 -0.0147,-0.57059 -0.0201,-1.14706 -0.0366,-1.72075 -0.0188,-0.45985 -0.0325,-0.92201 -0.0684,-1.38321 -0.0249,-0.40743 -0.0501,-0.8168 -0.0627,-1.22513 -0.0131,-0.39529 -0.0322,-0.78691 -0.0672,-1.17994 l -0.0592,-0.80443 c -0.0308,-0.41997 -0.12711,-0.76694 -0.25669,-1.04454 0.0496,-0.37394 0.0642,-0.78558 0.0379,-1.23059 -0.0145,-0.25227 -0.0286,-0.49808 -0.0395,-0.74935 -0.0213,-0.54411 -0.0183,-1.08481 -0.0168,-1.62605 0.0206,-0.68231 0.0475,-1.36315 0.0872,-2.04493 0.0352,-0.83151 0.019,-1.66313 -0.004,-2.49492 -0.008,-0.94655 0.0148,-1.8941 -0.0162,-2.84024 -0.0431,-1.007 -0.097,-2.01189 -0.18268,-3.0164 l -0.17654,-2.39969 c -0.0888,-1.20761 -0.4383,-2.11606 -0.91441,-2.73716 0.0313,-0.21017 0.0591,-0.4201 0.0885,-0.63014 0.0933,-0.56554 0.13497,-1.13442 0.15064,-1.70724 0.005,-0.56553 -0.0258,-1.12454 -0.0597,-1.68592 -0.0397,-0.62072 -0.0751,-1.24694 -0.13741,-1.86794 -0.0661,-0.54081 -0.14405,-1.08726 -0.23536,-1.62753 0.26712,-0.0367 0.49283,-0.37405 0.65015,-1.16972 0.0886,-0.45475 0.17888,-0.88689 0.14479,-1.35015 -0.0108,-0.49292 -0.0541,-0.98217 -0.13151,-1.46887 -0.10001,-0.63576 -0.228,-1.26558 -0.50218,-1.84891 -0.068,-0.13141 -0.12267,-0.27031 -0.20245,-0.39436 -0.0872,-0.13652 -0.18066,-0.27255 -0.28647,-0.40119 0.0619,-0.72953 0.11753,-1.4586 0.16015,-2.18931 0.0472,-0.75508 0.0945,-1.51016 0.14175,-2.2646 0.0501,-0.62734 0.0808,-1.25971 0.13081,-1.88963 0.0361,-0.81859 0.0528,-1.64092 -0.0138,-2.45844 l -0.13442,-1.82724 -0.13455,-1.82917 -0.15761,-2.14254 -0.17611,-2.3939 -0.1933,-2.62778 c -0.0551,-0.74951 -0.10922,-1.49843 -0.16336,-2.24801 -0.0502,-0.6953 -0.10144,-1.39116 -0.14948,-2.08663 -0.0441,-0.65288 -0.0855,-1.3066 -0.1148,-1.95991 -0.0306,-0.72726 -0.0584,-1.45474 -0.0449,-2.18201 0.016,-0.65664 0.0704,-1.31417 0.0926,-1.97128 0.0361,-0.64577 0.0656,-1.29171 0.018,-1.9359 -0.0415,-0.51014 -0.0856,-1.01946 -0.13796,-1.52945 -0.032,-0.29646 -0.0658,-0.59281 -0.1025,-0.88764 0.2722,-0.57868 0.40851,-1.34552 0.33912,-2.28886 l -0.0692,-0.94076 -0.31109,-4.22887 -0.30533,-4.15071 -0.25076,-3.40894 -0.25148,-3.41865 -0.2251,-3.06003 -0.20575,-2.79708 -0.0819,-1.11198 c 0.20652,-0.24907 0.41255,-0.50457 0.63935,-0.70509 0.13211,-0.5619 0.0898,-1.13696 0.0606,-1.70842 0.007,-0.4033 0.0367,-0.81083 0.0454,-1.21553 0.0277,-0.39181 0.0517,-0.78075 0.0615,-1.1719 0.009,-0.39692 -0.0148,-0.7973 -0.0371,-1.19582 -0.0586,-1.06821 -0.3564,-1.87587 -0.76967,-2.42884 0.039,-0.77916 0.0524,-1.55838 0.098,-2.33543 0.0357,-0.82375 0.0523,-1.64611 0.0175,-2.47114 -0.002,-0.70014 0.0255,-1.4005 0.0767,-2.09938 0.0251,-0.61898 0.0248,-1.2348 0.05,-1.85249 0.0273,-0.76272 0.0292,-1.5255 0.0243,-2.2891 0.0101,-0.66533 0.0112,-1.32868 -0.063,-1.99102 -0.0565,-0.76758 -0.11348,-1.53319 -0.1692,-2.30019 -0.0584,-0.79344 -0.1159,-1.58694 -0.16712,-2.38091 -0.033,-0.51727 -0.0633,-1.04058 -0.0757,-1.56131 -0.007,-0.40223 -0.003,-0.8046 0.0398,-1.20537 0.0406,-0.49671 0.0679,-0.99763 0.0825,-1.49825 0.0199,-0.68942 -0.0179,-1.37848 -0.095,-2.06271 -0.0624,-0.63854 -0.1264,-1.28085 -0.27533,-1.90912 -0.14406,-0.56106 -0.32589,-1.11155 -0.60666,-1.60995 0.007,-0.55915 0.0142,-1.11258 0.025,-1.66877 0.0548,-0.30285 0.0626,-0.63473 0.0557,-0.98891 0.0508,-0.62087 0.0947,-1.24515 0.0809,-1.87036 0.0213,-1.28261 0.004,-2.56435 -2.5e-4,-3.84639 -0.0421,-1.96851 -0.19915,-3.92984 -0.34992,-5.8923 -0.0752,-1.00851 -0.14745,-2.0179 -0.22668,-3.02678 -0.009,-0.0968 -0.0167,-0.20015 -0.0258,-0.29692 -0.006,-0.071 0.0374,-0.19764 0.008,-0.24094 -5.7e-4,-8e-4 -0.003,-0.005 -0.004,-0.006 l -0.002,-0.002 -0.002,-0.002 -0.006,-0.004 c -0.005,-0.002 -0.013,-0.004 -0.0199,-0.004 l -0.004,2.9e-4 c -0.0282,-0.32922 -0.0851,-0.43548 -0.31298,-0.41222 -0.006,-0.24646 -0.0158,-0.49904 -0.0274,-0.74634 -0.0189,-0.74891 -0.0202,-1.49719 -0.024,-2.24657 -0.001,-0.63003 -0.002,-1.25942 -0.0104,-1.88897 0.001,-0.46781 -0.012,-0.93459 0.0189,-1.40198 0.0472,-0.58164 0.0943,-1.1639 0.13488,-1.747 0.0373,-0.71539 0.0616,-1.4337 0.0474,-2.14985 -0.0281,-0.70016 -0.0447,-1.39923 -0.0774,-2.09973 l -0.17751,-2.41326 -0.21337,-2.90046 -0.15133,-2.05724 c -0.014,-0.19386 -0.029,-0.39413 -0.0433,-0.58798 l -0.0795,-1.08096 -0.008,-0.0969 -0.0563,-0.76371 c -2.8e-4,-0.003 -3.8e-4,-0.007 -7.3e-4,-0.01 -0.0193,-0.18048 -0.0474,-0.30182 -0.0983,-0.37605 0.11749,-0.4114 0.18531,-0.88671 0.19725,-1.42288 l 0.005,-0.39011 c 0.0258,-0.95815 0.0974,-1.90666 0.14905,-2.8641 0.005,-0.72604 -0.004,-1.45095 -0.0124,-2.17661 0.017,-0.5924 0.0539,-1.18758 -0.0154,-1.78078 l -0.10218,-1.38916 -0.11721,-1.59334 -0.14701,-1.99846 -0.13199,-1.79429 -0.1407,-1.91254 -0.14743,-2.00427 -0.15532,-2.11153 c -0.0502,-0.68296 -0.10039,-1.36201 -0.15048,-2.04563 -0.0504,-0.68423 -0.10063,-1.36784 -0.14901,-2.05288 -0.0539,-0.75869 -0.10771,-1.51868 -0.15383,-2.27794 -0.0376,-0.63387 -0.0742,-1.26715 -0.0774,-1.90355 -3.7e-4,-0.0324 3.8e-4,-0.0631 8.4e-4,-0.0975 0.2474,-0.47942 0.42792,-1.08191 0.50262,-1.81303 0.0534,-0.49764 0.10059,-0.99027 0.14101,-1.48892 0.0323,-0.52206 0.0768,-1.05218 0.11537,-1.57536 0.0529,-0.76396 0.0995,-1.53002 0.11377,-2.29569 -0.005,-0.85386 -0.0221,-1.69907 -0.0913,-2.55083 -0.0389,-0.68963 -0.0729,-1.38873 -0.0823,-2.07988 -0.006,-0.73886 0.0325,-1.47962 -0.0282,-2.21703 -0.0485,-0.66098 -0.0983,-1.32384 -0.14602,-1.98488 -0.0355,-0.51059 -0.0709,-1.01795 -0.10069,-1.5283 -0.0285,-0.5111 -0.0545,-1.02369 -0.066,-1.53475 -0.0118,-0.60328 0.002,-1.20385 -0.0107,-1.80516 -0.0145,-0.65569 -0.0441,-1.31483 -0.1037,-1.9685 l -0.12709,-1.72775 -0.0915,-1.24443 -0.072,-0.97758 -0.0854,-1.16108 -0.0894,-1.21536 -0.11394,-1.54876 -0.10589,-1.43957 -0.11003,-1.49578 -0.12581,-1.71029 c -0.0456,-0.62027 -0.0916,-1.24182 -0.13698,-1.86213 -0.0466,-0.63319 -0.0919,-1.26323 -0.13756,-1.89714 -0.0375,-0.52345 -0.0743,-1.05148 -0.10426,-1.57676 -0.0256,-0.48533 -0.0485,-0.97087 -0.0443,-1.45579 0.0103,-0.71728 0.0422,-1.43357 0.0795,-2.15025 0.0243,-0.52797 0.0309,-1.06375 0.0884,-1.59286 0.0503,-0.45194 0.0874,-0.90681 0.13115,-1.36085 0.1467,-1.58613 -0.29129,-2.64982 -0.96019,-3.17617 -0.004,-0.0528 -0.009,-0.10978 -0.0139,-0.16139 -0.0634,-1.03733 -0.1259,-2.07668 -0.13912,-3.11381 -0.001,-0.81127 0.0286,-1.619643 0.0847,-2.428653 0.0539,-0.751032 0.10768,-1.505298 0.15526,-2.255859 0.056,-0.810941 0.0992,-1.620306 0.12291,-2.433425 0.0173,-0.725596 0.0281,-1.452013 0.0261,-2.177493 -0.0183,-0.706744 -0.0532,-1.412261 -0.11647,-2.116339 l -0.17538,-2.384198 -0.16678,-2.267254 -0.18456,-2.50889 -0.19502,-2.651048 c -0.0442,-0.600895 -0.0867,-1.205819 -0.13098,-1.808002 -0.0417,-0.568592 -0.0844,-1.141667 -0.12596,-1.712223 -0.0511,-0.693945 -0.10125,-1.388585 -0.1492,-2.082756 -0.0493,-0.725245 -0.0995,-1.447823 -0.13641,-2.173341 -0.0238,-0.537424 -0.0452,-1.070484 -0.0217,-1.606198 0.0231,-0.560371 0.0462,-1.118155 0.0823,-1.676221 0.0259,-0.521606 0.0254,-1.052308 0.0447,-1.576024 0.0144,-0.765008 -0.0155,-1.521557 -0.0653,-2.284458 -0.0317,-0.671327 -0.0618,-1.341462 -0.0711,-2.013796 -0.0321,-0.491346 -0.0599,-0.980418 -0.0808,-1.470634 -0.0226,-0.576502 -0.042,-1.156482 -0.0247,-1.733317 0.0252,-0.515056 0.0779,-1.03668 0.13001,-1.551118 0.0326,-0.431139 0.0583,-0.866333 0.0843,-1.298945 0.0307,-0.456991 0.0481,-0.917555 0.0916,-1.375482 0.043,-0.63978 0.0543,-1.270746 -0.005,-1.906885 l -0.12781,-1.737426 -0.13498,-1.834991 -0.13428,-1.825299 -0.13198,-1.794291 -0.12667,-1.721918 -0.1261,-1.714168 c -0.0437,-0.594426 -0.0874,-1.190166 -0.13123,-1.783945 -0.039,-0.516824 -0.0791,-1.034223 -0.11806,-1.550401 -0.0381,-0.490909 -0.0727,-0.976233 -0.11573,-1.464177 -0.063,-0.71904 -0.12854,-1.435299 -0.20728,-2.152534 -0.0111,-0.09662 -0.0222,-0.19325 -0.0331,-0.289897 0.007,-0.02806 0.012,-0.05656 0.0192,-0.08585 0.1838,-0.819699 0.45182,-1.630003 0.42137,-2.480713 -0.0396,-1.064421 -0.26849,-1.46658 -0.61609,-1.47609 z m -53.2158,119.42707 c -0.0226,0.16405 -0.0471,0.32177 -0.0672,0.48565 -0.0208,-0.0635 -0.0438,-0.1267 -0.0649,-0.19011 z m -136.058155,47.9194 c -0.146692,0.10175 -0.286991,0.20302 -0.42729,0.30429 l -0.01616,-0.21969 z m 27.124646,54.00127 c 0.776787,0.81401 1.0732,1.16703 1.053208,1.2445 l 1.41e-4,0.002 -0.002,0.002 1.51e-4,0.002 -0.002,0.002 -0.002,0.002 -0.002,1.5e-4 -0.002,0.002 c -0.08096,0.0349 -0.518336,-0.23472 -1.106939,-0.56885 z m 170.175819,7.2478 c 0.0269,0.076 0.0512,0.15215 0.0537,0.17146 l 1.5e-4,0.002 1.4e-4,0.002 -0.002,1.5e-4 -1.5e-4,-0.002 c -0.005,-0.0103 -0.022,-0.0633 -0.0518,-0.17159 z m -18.8931,46.6641 c -0.0629,0.19302 -0.11844,0.39849 -0.178,0.63674 -0.0191,-0.10903 -0.039,-0.21151 -0.0588,-0.32049 0.0824,-0.10352 0.15825,-0.20652 0.2337,-0.31602 z" /></svg>
