<svg width="64" height="64" viewBox="0 0 64 64" fill="none" xmlns="http://www.w3.org/2000/svg">
<path fill-rule="evenodd" clip-rule="evenodd" d="M32.0007 3.62598L56.6436 28.2689V51.5939H52.1436V30.1329L32.0007 9.98994L11.8577 30.1329V51.5939H7.35771V28.2689L32.0007 3.62598ZM21.2659 29.3361C23.824 26.7779 28.0011 26.7779 30.5593 29.3361L32.0007 30.7774L33.4421 29.3361C36.0002 26.7779 40.1773 26.7779 42.7355 29.3361C45.2936 31.8942 45.2936 36.0713 42.7355 38.6294L32.0007 49.3642L21.2659 38.6294C18.7077 36.0713 18.7077 31.8942 21.2659 29.3361ZM27.3773 32.518C26.5765 31.7172 25.2487 31.7172 24.4479 32.518C23.6471 33.3188 23.6471 34.6467 24.4479 35.4474L32.0007 43.0002L39.5535 35.4474C40.3543 34.6467 40.3543 33.3188 39.5535 32.518C38.7527 31.7172 37.4248 31.7172 36.624 32.518L32.0007 37.1414L27.3773 32.518ZM57.1928 54.9421V59.4421H6.80859V54.9421H57.1928Z" fill="#007BFB"/>
</svg>
