<?xml version="1.0" encoding="UTF-8" standalone="no"?>
<svg
   fill="none"
   height="20"
   viewBox="0 0 20 20"
   width="20"
   version="1.1"
   id="svg1"
   sodipodi:docname="8686861_ic_fluent_city_regular_icon.svg"
   xml:space="preserve"
   inkscape:version="1.4.2 (f4327f4, 2025-05-13)"
   xmlns:inkscape="http://www.inkscape.org/namespaces/inkscape"
   xmlns:sodipodi="http://sodipodi.sourceforge.net/DTD/sodipodi-0.dtd"
   xmlns="http://www.w3.org/2000/svg"
   xmlns:svg="http://www.w3.org/2000/svg"><defs
     id="defs1" /><sodipodi:namedview
     id="namedview1"
     pagecolor="#ffffff"
     bordercolor="#000000"
     borderopacity="0.25"
     inkscape:showpageshadow="2"
     inkscape:pageopacity="0.0"
     inkscape:pagecheckerboard="0"
     inkscape:deskcolor="#d1d1d1"
     inkscape:zoom="28.814601"
     inkscape:cx="6.1253667"
     inkscape:cy="9.2487832"
     inkscape:window-width="1920"
     inkscape:window-height="1017"
     inkscape:window-x="1912"
     inkscape:window-y="70"
     inkscape:window-maximized="1"
     inkscape:current-layer="svg1" /><rect
     style="fill:#0d82fb;fill-opacity:1;stroke-width:21.2793;paint-order:stroke markers fill"
     id="rect3"
     width="19.972513"
     height="19.989866"
     x="0.03470454"
     y="-4.74812e-07"
     ry="0" /><path
     d="m 10.056697,1.4806569 c 0.2761,0 0.5,0.22386 0.5,0.5 v 1.5 l 1,8.9e-4 c 0.8284,0 1.5,0.67157 1.5,1.5 v 3.49911 h 2.5 c 0.8284,0 1.5,0.6715703 1.5,1.5000003 v 5.9999998 c 0,0.8284 -0.6716,1.5 -1.5,1.5 h -4 -0.0024 -2.9948104 c -9.3e-4,0 -0.0019,0 -0.0028,0 h -4 c -0.82843,0 -1.5,-0.6716 -1.5,-1.5 V 9.7968572 c 0,-0.52689 0.27645,-1.0151503 0.72826,-1.2862403 l 3,-1.8 c 0.08879,-0.05327 0.17973,-0.09614 0.27174,-0.1292 v -1.59987 c 0,-0.82843 0.67157,-1.5 1.5,-1.5 h 1 v -1.50089 c 0,-0.27614 0.22386,-0.5 0.5000004,-0.5 z m -2.0000004,5.1015 c 0.56302,0.20106 1,0.73131 1,1.4147 V 16.480657 H 11.056697 V 9.9806572 c 0,-0.65311 0.4174,-1.2087303 1,-1.4146503 v -3.58446 c 0,-0.27615 -0.2239,-0.5 -0.5,-0.5 H 8.5566966 c -0.27614,0 -0.5,0.22385 -0.5,0.5 z m 4.5000004,2.8985003 c -0.2761,0 -0.5,0.2239 -0.5,0.5 v 6.4999998 h 3.5 c 0.2761,0 0.5,-0.2239 0.5,-0.5 V 9.9806572 c 0,-0.2761 -0.2239,-0.5 -0.5,-0.5 z m -5.2572504,-1.9125403 -3,1.7999903 c -0.1506,0.09037 -0.24275,0.25315 -0.24275,0.42875 v 6.1837998 c 0,0.2761 0.22386,0.5 0.5,0.5 h 3.5 V 7.9968569 c 0,-0.38864 -0.42399,-0.6287 -0.75725,-0.42874 z"
     fill="#212121"
     id="path1"
     style="fill:#ffffff;fill-opacity:1" /></svg>
