<?xml version="1.0" encoding="UTF-8" standalone="no"?>
<svg
   viewBox="0 0 24 24"
   version="1.1"
   id="svg1"
   sodipodi:docname="medal.svg"
   inkscape:version="1.4.2 (f4327f4, 2025-05-13)"
   xmlns:inkscape="http://www.inkscape.org/namespaces/inkscape"
   xmlns:sodipodi="http://sodipodi.sourceforge.net/DTD/sodipodi-0.dtd"
   xmlns="http://www.w3.org/2000/svg"
   xmlns:svg="http://www.w3.org/2000/svg">
  <defs
     id="defs1" />
  <sodipodi:namedview
     id="namedview1"
     pagecolor="#ffffff"
     bordercolor="#000000"
     borderopacity="0.25"
     inkscape:showpageshadow="2"
     inkscape:pageopacity="0.0"
     inkscape:pagecheckerboard="0"
     inkscape:deskcolor="#d1d1d1"
     inkscape:zoom="36.541667"
     inkscape:cx="11.986317"
     inkscape:cy="12"
     inkscape:window-width="1920"
     inkscape:window-height="1057"
     inkscape:window-x="-8"
     inkscape:window-y="-8"
     inkscape:window-maximized="1"
     inkscape:current-layer="svg1" />
  <title
     id="title1" />
  <g
     data-name="Layer 2"
     id="Layer_2"
     style="fill:#0d82fb;fill-opacity:1">
    <path
       d="M12,6.34,9.59,2H1.38L6.85,12.94a6,6,0,1,0,10.3,0L22.62,2H14.41ZM8.41,4l2.44,4.4L9.71,10.46a6,6,0,0,0-1.44.85L4.62,4ZM12,20a4,4,0,0,1,0-8v1.33h0V12h0a4,4,0,0,1,0,8ZM19.38,4l-3.65,7.31A6,6,0,0,0,12.25,10l3.34-6Z"
       id="path1"
       style="fill:#0d82fb;fill-opacity:1" />
  </g>
</svg>
