<?xml version="1.0" encoding="UTF-8" standalone="no"?>
<svg
   data-name="Layer 1"
   id="Layer_1"
   viewBox="0 0 512 512"
   version="1.1"
   sodipodi:docname="Commercil real estate.svg"
   inkscape:version="1.4.2 (f4327f4, 2025-05-13)"
   xmlns:inkscape="http://www.inkscape.org/namespaces/inkscape"
   xmlns:sodipodi="http://sodipodi.sourceforge.net/DTD/sodipodi-0.dtd"
   xmlns="http://www.w3.org/2000/svg"
   xmlns:svg="http://www.w3.org/2000/svg">
  <defs
     id="defs16" />
  <sodipodi:namedview
     id="namedview16"
     pagecolor="#ffffff"
     bordercolor="#000000"
     borderopacity="0.25"
     inkscape:showpageshadow="2"
     inkscape:pageopacity="0.0"
     inkscape:pagecheckerboard="0"
     inkscape:deskcolor="#d1d1d1"
     inkscape:zoom="1.5917969"
     inkscape:cx="256"
     inkscape:cy="256"
     inkscape:window-width="1920"
     inkscape:window-height="1017"
     inkscape:window-x="1912"
     inkscape:window-y="70"
     inkscape:window-maximized="1"
     inkscape:current-layer="Layer_1" />
  <path
     d="M425.26,445.52H392.85V283.18h-28.5V173.71H337.64V128.39h-20V88.23H264.15V58.32a8.16,8.16,0,0,0-16.31,0V88.23H194.32v40.16h-20v45.32H147.65V283.18h-28.5V445.52H86.74a8.16,8.16,0,0,0,0,16.31H425.26a8.16,8.16,0,0,0,0-16.31ZM348,190v93.16H284.36V190H348ZM321.32,144.7v29h-37v-29h37Zm-57.17-17.5V104.55h37.22v23.84H263.91A8.09,8.09,0,0,0,264.15,127.2Zm-53.52-22.65h37.21V127.2a8.09,8.09,0,0,0,.24,1.19H210.63ZM190.68,144.7h37v29h-37ZM164,190h63.68v93.16H164Zm-28.49,255.5v-146h92.17v146Zm108.48,0V144.7h24.1V445.52Zm40.41,0v-146h92.17v146Z"
     id="path1"
     style="fill:#0d82fb;fill-opacity:1" />
  <rect
     height="18.38"
     width="18.38"
     x="149.98"
     y="316.55"
     id="rect1"
     style="fill:#0d82fb;fill-opacity:1" />
  <rect
     height="18.38"
     width="18.38"
     x="185.33"
     y="316.55"
     id="rect2"
     style="fill:#0d82fb;fill-opacity:1" />
  <rect
     height="18.38"
     width="18.38"
     x="149.98"
     y="359.67"
     id="rect3"
     style="fill:#0d82fb;fill-opacity:1" />
  <rect
     height="18.38"
     width="18.38"
     x="185.33"
     y="359.67"
     id="rect4"
     style="fill:#0d82fb;fill-opacity:1" />
  <rect
     height="18.38"
     width="18.38"
     x="185.33"
     y="205.85"
     id="rect5"
     style="fill:#0d82fb;fill-opacity:1" />
  <rect
     height="18.38"
     width="18.38"
     x="185.33"
     y="248.97"
     id="rect6"
     style="fill:#0d82fb;fill-opacity:1" />
  <rect
     height="18.38"
     width="18.38"
     x="149.98"
     y="402.79"
     id="rect7"
     style="fill:#0d82fb;fill-opacity:1" />
  <rect
     height="18.38"
     width="18.38"
     x="185.33"
     y="402.79"
     id="rect8"
     style="fill:#0d82fb;fill-opacity:1" />
  <rect
     height="18.38"
     width="18.38"
     x="343.63"
     y="316.55"
     id="rect9"
     style="fill:#0d82fb;fill-opacity:1" />
  <rect
     height="18.38"
     width="18.38"
     x="308.28"
     y="316.55"
     id="rect10"
     style="fill:#0d82fb;fill-opacity:1" />
  <rect
     height="18.38"
     width="18.38"
     x="343.63"
     y="359.67"
     id="rect11"
     style="fill:#0d82fb;fill-opacity:1" />
  <rect
     height="18.38"
     width="18.38"
     x="308.28"
     y="359.67"
     id="rect12"
     style="fill:#0d82fb;fill-opacity:1" />
  <rect
     height="18.38"
     width="18.38"
     x="308.28"
     y="205.85"
     id="rect13"
     style="fill:#0d82fb;fill-opacity:1" />
  <rect
     height="18.38"
     width="18.38"
     x="308.28"
     y="248.97"
     id="rect14"
     style="fill:#0d82fb;fill-opacity:1" />
  <rect
     height="18.38"
     width="18.38"
     x="343.63"
     y="402.79"
     id="rect15"
     style="fill:#0d82fb;fill-opacity:1" />
  <rect
     height="18.38"
     width="18.38"
     x="308.28"
     y="402.79"
     id="rect16"
     style="fill:#0d82fb;fill-opacity:1" />
</svg>
