<?xml version="1.0" encoding="UTF-8" standalone="no"?>
<svg
   id="Layer_1"
   style="enable-background:new 0 0 168.092 235.503;"
   version="1.1"
   viewBox="0 0 168.092 235.503"
   xml:space="preserve"
   sodipodi:docname="property.svg"
   inkscape:version="1.4.2 (f4327f4, 2025-05-13)"
   xmlns:inkscape="http://www.inkscape.org/namespaces/inkscape"
   xmlns:sodipodi="http://sodipodi.sourceforge.net/DTD/sodipodi-0.dtd"
   xmlns="http://www.w3.org/2000/svg"
   xmlns:svg="http://www.w3.org/2000/svg"><defs
     id="defs4" /><sodipodi:namedview
     id="namedview4"
     pagecolor="#ffffff"
     bordercolor="#000000"
     borderopacity="0.25"
     inkscape:showpageshadow="2"
     inkscape:pageopacity="0.0"
     inkscape:pagecheckerboard="0"
     inkscape:deskcolor="#d1d1d1"
     inkscape:zoom="1.7303388"
     inkscape:cx="10.113626"
     inkscape:cy="133.2109"
     inkscape:window-width="1920"
     inkscape:window-height="1017"
     inkscape:window-x="1912"
     inkscape:window-y="70"
     inkscape:window-maximized="1"
     inkscape:current-layer="Layer_1" /><g
     id="g4"
     style="fill:#0d82fb;fill-opacity:1"
     transform="matrix(0.70088315,0,0,0.70088315,24.272244,30.631415)"><path
       d="m 89.164,106.181 c 0,2.905 -1.252,5.516 -3.234,7.345 3.83,-0.232 7.459,-0.803 10.865,-1.667 l -6.355,9.382 20.475,13.868 c -0.336,-0.973 -0.525,-1.999 -0.547,-3.057 -0.006,-0.309 0.004,-0.615 0.025,-0.919 l -15.787,-10.693 17.945,-26.494 15.66,10.606 c 0.473,-0.91 0.916,-1.817 1.33,-2.723 l -5.219,-3.535 c 0.109,-0.217 0.213,-0.438 0.324,-0.654 -0.041,-0.962 -0.051,-1.924 -0.07,-2.886 1.768,-1.976 3.361,-4.001 4.791,-6.031 0.566,3.261 1.082,6.617 1.488,10.009 2.031,-5.26 3.074,-10.439 3.105,-15.512 0.002,-6.226 -1.654,-10.488 -2.367,-12.033 -0.188,-0.404 -0.317,-0.645 -0.367,-0.734 -2.818,-4.586 -1.375,-10.734 3.256,-13.635 1.594,-0.999 3.426,-1.528 5.299,-1.528 3.475,0 6.645,1.755 8.486,4.695 0.951,1.53 5.678,9.81 5.693,23.246 0.037,8.269 -1.848,19.553 -9.072,32.617 l 1.193,0.809 -17.943,26.494 -3.408,-2.309 c -1.205,0.586 -2.523,0.922 -3.898,0.985 l 4.109,2.783 c -1.643,8.569 -2.879,18.805 -2.893,30.249 -0.004,15.705 2.359,33.7 9.32,52.482 1.867,5.042 6.645,8.161 11.725,8.162 1.441,0 2.906,-0.252 4.338,-0.781 6.475,-2.4 9.779,-9.59 7.381,-16.065 -5.789,-15.626 -7.764,-30.577 -7.766,-43.797 -0.004,-14.127 2.279,-26.243 4.543,-34.71 0.391,-1.464 0.779,-2.81 1.156,-4.047 6.313,-1.6 12.033,-5.879 14.146,-16.753 2.586,-22.215 1.123,-35.346 -5.682,-55.52 -5.035,-14.643 -17.41,-19.279 -25.947,-17.15 -4.342,1.082 -7.443,4.699 -9.068,9.299 -1.973,4.259 -4.088,10.485 -5.955,17.075 -0.969,1.839 -2.08,3.726 -3.348,5.585 -3.365,4.976 -7.756,9.729 -13.369,13.202 -5.156,3.174 -11.346,5.364 -19.297,5.73 2.949,1.739 4.939,4.943 4.939,8.61 z"
       id="path1"
       style="fill:#0d82fb;fill-opacity:1" /><ellipse
       cx="119.229"
       cy="22.497999"
       rx="22.495001"
       ry="22.493"
       transform="matrix(0.9739,-0.2268,0.2268,0.9739,-1.9956,27.6278)"
       id="ellipse1"
       style="fill:#0d82fb;fill-opacity:1" /><rect
       height="1.999"
       transform="matrix(0.5726,-0.8199,0.8199,0.5726,-44.7718,138.136)"
       width="19.211"
       x="100.489"
       y="111.008"
       id="rect1"
       style="fill:#0d82fb;fill-opacity:1" /><rect
       height="2.0020001"
       transform="matrix(0.5727,-0.8198,0.8198,0.5727,-45.6778,145.8895)"
       width="19.212"
       x="107.489"
       y="115.757"
       id="rect2"
       style="fill:#0d82fb;fill-opacity:1" /><path
       d="m 151.961,83.234 c -0.016,-13.295 -4.871,-21.353 -5.389,-22.188 -2.346,-3.745 -7.283,-4.88 -11.027,-2.535 -3.725,2.333 -4.867,7.229 -2.572,10.967 0.002,0.002 0.002,0.004 0.004,0.007 0.055,0.096 0.209,0.377 0.434,0.864 0.852,1.848 2.553,6.351 2.551,12.884 -0.061,9.748 -3.555,24.441 -21.363,43.073 -3.063,3.186 -2.961,8.25 0.227,11.312 1.549,1.49 3.545,2.231 5.539,2.231 2.102,0 4.201,-0.823 5.773,-2.458 20.132,-20.854 25.886,-40.157 25.823,-54.157 z"
       id="path2"
       style="fill:#0d82fb;fill-opacity:1" /><ellipse
       cx="48.862999"
       cy="22.497999"
       rx="22.493"
       ry="22.495001"
       transform="matrix(0.2268,-0.9739,0.9739,0.2268,15.8689,64.9853)"
       id="ellipse2"
       style="fill:#0d82fb;fill-opacity:1" /><path
       d="m 15.34,136.101 c 2.545,8.387 5.723,22.193 5.701,38.758 -0.004,13.217 -1.98,28.171 -7.764,43.799 -2.398,6.474 0.906,13.666 7.381,16.063 1.432,0.53 2.898,0.781 4.34,0.781 5.08,0 9.857,-3.12 11.723,-8.163 6.955,-18.783 9.322,-36.776 9.32,-52.48 -0.033,-25.046 -5.912,-44.31 -9.09,-52.935 -0.785,-5.872 -0.725,-12.08 -0.211,-18.267 C 32.224,100.164 28.299,95.978 25.18,91.25 18.059,80.389 16.615,69.964 16.324,65.988 l -0.01,-0.146 c -0.254,-5.606 4.023,-10.29 9.533,-10.54 0.152,-0.007 0.307,-0.011 0.457,-0.011 5.354,0 9.738,4.194 9.984,9.546 0.004,0.039 0.016,0.178 0.037,0.373 0.047,0.43 0.139,1.124 0.303,2.016 0.313,1.664 0.941,4.263 2.148,7.168 0.576,1.373 1.236,2.654 1.938,3.891 0.541,-2.68 1.068,-5.241 1.533,-7.615 C 45.116,60.717 41.362,48.805 32.827,46.678 24.29,44.549 11.915,49.186 6.88,63.828 0.075,84.002 -1.388,97.133 1.198,119.348 3.311,130.22 9.028,134.5 15.34,136.101 Z"
       id="path3"
       style="fill:#0d82fb;fill-opacity:1" /><path
       d="M 34.664,67.592 C 34.488,66.645 34.391,65.904 34.338,65.435 34.313,65.203 34.299,65.039 34.293,64.95 L 34.291,64.93 C 34.09,60.517 30.35,57.101 25.938,57.3 c -4.414,0.2 -7.83,3.94 -7.629,8.354 h -0.004 c 0.076,0.793 0.557,12.314 8.547,24.498 3.998,6.063 9.992,12.218 18.537,16.718 8.523,4.508 19.457,7.315 33.1,7.315 0.021,0 0.041,0 0.063,0 0.242,0 0.445,-0.002 0.615,-0.002 4.416,0 7.998,-3.581 7.998,-8 0,-4.418 -3.582,-7.998 -7.998,-7.998 -0.246,-0.002 -0.451,0 -0.615,0 C 67.023,98.176 58.843,95.872 52.859,92.721 43.937,87.99 39.447,81.146 36.933,75.164 35.696,72.193 35.02,69.486 34.664,67.592 Z"
       id="path4"
       style="fill:#0d82fb;fill-opacity:1" /></g></svg>
